<svg width="182" height="67" viewBox="0 0 182 67" fill="none" xmlns="http://www.w3.org/2000/svg">
<g clip-path="url(#clip0_106_26)">
<mask id="mask0_106_26" style="mask-type:luminance" maskUnits="userSpaceOnUse" x="0" y="0" width="182" height="67">
<path d="M182 0H0V67H182V0Z" fill="white"/>
</mask>
<g mask="url(#mask0_106_26)">
<path d="M93.9631 22.1919L102.622 21.6371C102.819 23.0404 103.182 24.0848 103.774 24.8354C104.729 26.0102 106.046 26.5977 107.791 26.5977C109.075 26.5977 110.096 26.3039 110.787 25.6839C111.445 25.1944 111.84 24.4111 111.84 23.5952C111.84 22.812 111.478 22.0614 110.853 21.5718C110.194 20.9844 108.647 20.397 106.211 19.8748C102.227 18.9937 99.3625 17.8188 97.6834 16.3176C96.0043 14.9143 95.0496 12.8583 95.1154 10.6717C95.1154 9.17049 95.5763 7.66928 96.4323 6.42914C97.42 5.02583 98.7699 3.91623 100.383 3.29616C102.128 2.54556 104.564 2.15393 107.626 2.15393C111.38 2.15393 114.244 2.83927 116.219 4.24258C118.195 5.61326 119.38 7.83245 119.742 10.8675L111.182 11.357C110.952 10.0516 110.491 9.10522 109.733 8.48516C108.976 7.86509 107.988 7.57137 106.704 7.57137C105.651 7.57137 104.861 7.79982 104.334 8.22407C103.84 8.6157 103.511 9.20313 103.544 9.85583C103.544 10.3454 103.807 10.8022 104.202 11.096C104.63 11.4876 105.651 11.8466 107.264 12.1729C111.248 13.0214 114.079 13.8699 115.824 14.7511C117.569 15.6322 118.82 16.7092 119.577 17.982C120.368 19.2874 120.763 20.7886 120.73 22.3225C120.73 24.15 120.203 25.9776 119.149 27.5114C118.063 29.1106 116.548 30.3507 114.771 31.1013C112.894 31.9172 110.524 32.3415 107.692 32.3415C102.688 32.3415 99.2308 31.395 97.2883 29.4696C95.3459 27.5441 94.1936 25.1291 93.9631 22.1919ZM2.07417 31.8519V2.6761H17.2518C20.0503 2.6761 22.2232 2.90454 23.7048 3.39407C25.1534 3.85096 26.4374 4.79738 27.2934 6.07015C28.2482 7.47347 28.7091 9.10522 28.6762 10.8022C28.775 13.6741 27.2934 16.4155 24.7583 17.8514C23.7706 18.4062 22.6842 18.7979 21.5648 18.9937C22.3878 19.2221 23.2109 19.6137 23.9352 20.0706C24.4949 20.5275 24.9559 21.0497 25.3839 21.6045C25.8777 22.1593 26.3057 22.7794 26.6679 23.4321L31.0796 31.8846H20.7417L15.869 22.9099C15.2435 21.7677 14.7167 21.017 14.2229 20.6581C13.5644 20.2012 12.7742 19.9727 11.9841 19.9727H11.1939V31.8193H2.07417V31.8519ZM11.1939 14.49H15.0459C15.869 14.4247 16.6592 14.2942 17.4493 14.0984C18.042 14.0005 18.5687 13.6741 18.9309 13.1846C19.8198 12.0097 19.6881 10.3454 18.6017 9.33367C18.009 8.84414 16.8567 8.58306 15.2106 8.58306H11.1939V14.49ZM0 56.8505L8.65883 56.2957C8.85637 57.699 9.21852 58.7433 9.81114 59.4939C10.733 60.6688 12.0829 61.2888 13.8278 61.2888C15.1118 61.2888 16.1324 60.9951 16.8238 60.3751C17.4823 59.8529 17.8774 59.1023 17.8774 58.2864C17.8774 57.5032 17.5152 56.7526 16.8897 56.263C16.2312 55.6756 14.6838 55.0882 12.2145 54.566C8.23082 53.6848 5.3665 52.51 3.68741 51.0088C2.00832 49.6055 1.05355 47.5494 1.11939 45.3629C1.11939 43.8617 1.58032 42.3605 2.43632 41.1203C3.42402 39.717 4.77388 38.6074 6.38712 37.9873C8.13206 37.2367 10.5684 36.8451 13.6302 36.8451C17.3835 36.8451 20.2478 37.5304 22.2232 38.9338C24.1986 40.3371 25.3509 42.5236 25.7131 45.5587L17.153 46.0482C16.9226 44.7428 16.4616 43.7964 15.7044 43.1763C14.9801 42.5563 13.9595 42.2625 12.6755 42.2952C11.6219 42.2952 10.8318 42.5236 10.305 42.9805C9.77822 43.3721 9.48191 43.9596 9.51483 44.6123C9.51483 45.1018 9.77822 45.5587 10.1733 45.8524C10.6013 46.244 11.6219 46.603 13.2352 46.9294C17.2189 47.7779 20.0503 48.6264 21.7952 49.5075C23.5402 50.3887 24.7912 51.4657 25.5485 52.7384C26.3386 54.0438 26.7337 55.5451 26.7337 57.0463C26.7337 58.8738 26.174 60.6688 25.1534 62.2026C24.0669 63.8018 22.5525 65.0419 20.7746 65.7925C18.898 66.6084 16.5275 67.0326 13.6961 67.0326C8.69175 67.0326 5.2348 66.0862 3.29233 64.1607C1.34986 62.2026 0.263386 59.7876 0 56.8505Z" fill="#E0E4E4"/>
<path d="M43.788 54.566L51.7554 56.9484C51.3274 58.9391 50.4385 60.832 49.2203 62.4963C48.1009 63.9649 46.6194 65.1072 44.9403 65.8578C43.2283 66.6084 41.0554 67 38.4215 67C35.2279 67 32.5941 66.5431 30.5857 65.6293C28.5445 64.7155 26.7996 63.0838 25.318 60.7667C23.8365 58.4496 23.1122 55.4798 23.1122 51.8573C23.1122 47.0273 24.3962 43.3069 26.9971 40.7287C29.598 38.1505 33.2525 36.8451 37.9935 36.8451C41.7138 36.8451 44.6111 37.5957 46.7511 39.0643C48.8582 40.5655 50.4385 42.85 51.492 45.9177L43.4588 47.68C43.2612 46.9946 42.9649 46.3093 42.5698 45.7219C42.076 45.0365 41.4504 44.5144 40.6932 44.1227C39.936 43.7311 39.08 43.568 38.2239 43.568C36.1498 43.568 34.5695 44.3838 33.483 46.0482C32.6599 47.2557 32.2319 49.1812 32.2319 51.792C32.2319 55.0229 32.7258 57.2421 33.7135 58.4496C34.7012 59.6571 36.0839 60.2445 37.8947 60.2445C39.6397 60.2445 40.9566 59.755 41.8455 58.8086C42.7344 57.7969 43.3929 56.3936 43.788 54.566ZM62.3897 37.3346H71.4765V47.5494H81.4193V37.3346H90.572V66.5105H81.4193V54.6965H71.4765V66.5105H62.3897V37.3346Z" fill="#E0E4E4"/>
<path d="M89.3209 51.9226C89.3209 47.1578 90.6708 43.4374 93.3376 40.794C96.0044 38.1505 99.7576 36.8125 104.531 36.8125C109.437 36.8125 113.19 38.1179 115.857 40.7287C118.524 43.3395 119.841 46.9946 119.841 51.6941C119.841 55.1208 119.248 57.8948 118.096 60.0813C116.977 62.2353 115.232 63.9976 113.092 65.1724C110.886 66.3799 108.153 67 104.894 67C101.568 67 98.8358 66.4778 96.6628 65.4335C94.424 64.3239 92.5803 62.5943 91.3622 60.473C90.0123 58.1885 89.3209 55.3492 89.3209 51.9226ZM98.4078 51.9552C98.4078 54.8923 98.9675 57.0136 100.054 58.319C101.14 59.5918 102.655 60.2445 104.564 60.2445C106.507 60.2445 108.021 59.6245 109.108 58.3517C110.194 57.0789 110.721 54.8271 110.721 51.5636C110.721 48.8222 110.161 46.7988 109.042 45.5587C107.923 44.2859 106.408 43.6659 104.499 43.6659C102.819 43.6006 101.206 44.3186 100.087 45.5913C98.9675 46.8641 98.4078 48.9854 98.4078 51.9552ZM129.158 51.9226C129.158 47.1578 130.508 43.4374 133.175 40.794C135.842 38.1505 139.595 36.8125 144.369 36.8125C149.274 36.8125 153.06 38.1179 155.694 40.7287C158.328 43.3395 159.678 46.9946 159.678 51.6941C159.678 55.1208 159.085 57.8948 157.933 60.0813C156.814 62.2353 155.069 63.9976 152.929 65.1724C150.723 66.3799 147.99 67 144.731 67C141.406 67 138.673 66.4778 136.5 65.4335C134.261 64.3239 132.418 62.5943 131.199 60.473C129.85 58.1885 129.158 55.3492 129.158 51.9226ZM138.245 51.9552C138.245 54.8923 138.805 57.0136 139.891 58.319C140.978 59.5918 142.492 60.2445 144.402 60.2445C146.344 60.2445 147.859 59.6245 148.945 58.3517C150.031 57.0789 150.558 54.8271 150.558 51.5636C150.558 48.8222 149.999 46.7988 148.879 45.5587C147.76 44.2859 146.245 43.6659 144.336 43.6659C142.657 43.6006 141.011 44.3186 139.924 45.5913C138.805 46.8641 138.245 48.9854 138.245 51.9552Z" fill="#E0E4E4"/>
<path d="M158.723 37.3346H167.81V59.3307H182V66.5105H158.69V37.3346H158.723Z" fill="#E0E4E4"/>
<path d="M148.708 35.6509C157.856 28.8171 160.677 17.2327 155.009 9.77641C149.34 2.32014 137.329 1.81553 128.18 8.64933C119.032 15.4831 116.21 27.0675 121.879 34.5238C127.547 41.9801 139.559 42.4847 148.708 35.6509Z" fill="white"/>
<path d="M98.5476 18.4521L145.823 -16.862L178.536 26.1684L131.261 61.4826L98.5476 18.4521Z" fill="white"/>
<path d="M148.708 35.6509C157.856 28.8171 160.677 17.2327 155.009 9.77641C149.34 2.32014 137.329 1.81553 128.18 8.64933C119.032 15.4831 116.21 27.0675 121.879 34.5238C127.547 41.9801 139.559 42.4847 148.708 35.6509Z" fill="white"/>
<path d="M111.712 21.3254L144.816 -3.40179L165.363 23.6262L132.259 48.3533L111.712 21.3254Z" fill="white"/>
<path d="M148.708 35.6509C157.856 28.8171 160.677 17.2327 155.009 9.77641C149.34 2.32014 137.329 1.81553 128.18 8.64933C119.032 15.4831 116.21 27.0675 121.879 34.5238C127.547 41.9801 139.559 42.4847 148.708 35.6509Z" fill="white" stroke="#E0E4E4" stroke-width="4" stroke-miterlimit="10"/>
<path d="M111.712 21.3254L144.816 -3.40179L165.363 23.6262L132.259 48.3533L111.712 21.3254Z" stroke="#E0E4E4" stroke-width="4" stroke-miterlimit="10"/>
<path d="M148.708 35.6509C157.856 28.8171 160.677 17.2327 155.009 9.77641C149.34 2.32014 137.329 1.81553 128.18 8.64933C119.032 15.4831 116.21 27.0675 121.879 34.5238C127.547 41.9801 139.559 42.4847 148.708 35.6509Z" stroke="#E0E4E4" stroke-width="4" stroke-miterlimit="10"/>
<path d="M111.712 21.3254L144.816 -3.40179L165.363 23.6262L132.259 48.3533L111.712 21.3254Z" fill="white"/>
<path d="M148.708 35.6509C157.856 28.8171 160.677 17.2327 155.009 9.77641C149.34 2.32014 137.329 1.81553 128.18 8.64933C119.032 15.4831 116.21 27.0675 121.879 34.5238C127.547 41.9801 139.559 42.4847 148.708 35.6509Z" fill="white" stroke="#E0E4E4" stroke-width="4" stroke-miterlimit="10"/>
<path d="M111.712 21.3254L144.816 -3.40179L165.363 23.6262L132.259 48.3533L111.712 21.3254Z" stroke="#E0E4E4" stroke-width="4" stroke-miterlimit="10"/>
<path d="M98.5476 18.4521L145.823 -16.862L178.536 26.1684L131.261 61.4826L98.5476 18.4521Z" stroke="#E0E4E4" stroke-width="4" stroke-miterlimit="10"/>
<path d="M148.708 35.6509C157.856 28.8171 160.677 17.2327 155.009 9.77641C149.34 2.32014 137.329 1.81553 128.18 8.64933C119.032 15.4831 116.21 27.0675 121.879 34.5238C127.547 41.9801 139.559 42.4847 148.708 35.6509Z" stroke="#E0E4E4" stroke-width="4" stroke-miterlimit="10"/>
<path d="M129.191 20.0054L132.483 17.7209L136.533 23.432C137.224 24.3458 137.751 25.3249 138.146 26.4018C138.377 27.2177 138.311 28.0989 137.982 28.8821C137.554 29.8612 136.862 30.6771 135.94 31.2645C134.854 32.0151 133.932 32.4394 133.142 32.5699C132.385 32.7004 131.594 32.5699 130.87 32.2435C130.08 31.8519 129.389 31.2971 128.862 30.5791L131.693 27.9683C131.924 28.3273 132.22 28.6537 132.549 28.9148C132.78 29.0779 133.043 29.1758 133.339 29.1758C133.57 29.1758 133.8 29.0779 133.965 28.9474C134.294 28.7516 134.525 28.36 134.492 27.9683C134.393 27.4135 134.162 26.8587 133.8 26.4345L129.191 20.0054ZM139.068 23.6279L142.064 21.2781C142.393 21.6697 142.821 21.9635 143.282 22.1266C143.941 22.3225 144.632 22.1919 145.192 21.7677C145.587 21.5066 145.916 21.1476 146.048 20.6907C146.245 20.1033 145.916 19.4506 145.323 19.2547C145.225 19.2221 145.126 19.1895 145.027 19.1895C144.632 19.1568 143.941 19.32 142.92 19.7443C141.241 20.4296 139.924 20.6907 138.936 20.5928C137.982 20.4949 137.093 20.0054 136.566 19.1895C136.171 18.6347 135.973 17.982 135.94 17.3293C135.94 16.5787 136.138 15.8281 136.566 15.208C137.191 14.3268 137.949 13.5762 138.87 12.9888C140.253 12.0424 141.471 11.5855 142.525 11.5855C143.579 11.5855 144.566 12.075 145.488 13.0867L142.525 15.4038C141.932 14.6532 140.813 14.49 140.056 15.0774L139.957 15.1753C139.628 15.3712 139.397 15.6649 139.266 16.0239C139.167 16.2849 139.233 16.5787 139.397 16.8071C139.529 16.9703 139.726 17.1008 139.957 17.1008C140.22 17.1335 140.681 17.0029 141.34 16.7092C142.986 16.0239 144.237 15.6322 145.093 15.5017C145.817 15.3712 146.575 15.4364 147.266 15.7301C147.891 15.9912 148.418 16.4481 148.78 17.0029C149.241 17.6556 149.505 18.4389 149.538 19.2547C149.571 20.1033 149.34 20.9191 148.879 21.6371C148.287 22.5183 147.529 23.2689 146.64 23.8563C144.83 25.0964 143.348 25.6186 142.163 25.4228C140.879 25.227 139.825 24.5743 139.068 23.6279Z" fill="#E0E4E4"/>
</g>
</g>
<defs>
<clipPath id="clip0_106_26">
<rect width="182" height="67" fill="white"/>
</clipPath>
</defs>
</svg>
